name GIL11_slow2Moments.mot
datacolumns 7
datarows 27
range 0.26666653 0.48333320
endheader

                time	          RHipMoment	          LHipMoment	         RKneeMoment	         LKneeMoment	        RAnkleMoment	        LAnkleMoment	
          0.26666653	        -86.00641632	        469.65991211	          9.61184216	         12.21374893	        -20.26406097	        203.87991333	
          0.27499989	        -98.10171509	        442.88940430	         12.18889236	         20.80323792	        -22.39296532	        228.21301270	
          0.28333321	       -109.03867340	        428.32684326	         14.22215462	         27.71821594	        -24.12550354	        251.74369812	
          0.29166654	       -116.47369385	        424.97695923	         17.48283005	         31.38634109	        -25.00733185	        274.03399658	
          0.29999986	       -119.17198181	        423.15557861	         19.42413139	         32.48458481	        -24.87402916	        294.78756714	
          0.30833322	       -114.86582184	        424.65182495	         22.50448799	         31.61860085	        -23.57344437	        313.71804810	
          0.31666654	       -111.22832489	        423.77685547	         29.05397987	         28.84523201	        -21.34955215	        330.57467651	
          0.32499987	        -91.82189178	        424.22851563	         33.01971817	         23.48678589	        -18.37020683	        344.42028809	
          0.33333319	       -106.94540405	        421.28530884	         48.02392197	         15.49275780	        -15.58508587	        356.35903931	
          0.34166655	       -114.82540894	        423.85784912	         57.01951981	          3.00331426	        -12.96608353	        368.06307983	
          0.34999987	       -132.84945679	        424.19134521	         62.59097672	        -12.71138859	        -10.95094299	        379.41284180	
          0.35833320	       -138.71244812	        425.30856323	         58.55880737	        -29.57755089	         -9.36232185	        391.68957520	
          0.36666656	       -150.09190369	        416.88723755	         51.53656006	        -46.85139847	         -8.30053520	        404.97879028	
          0.37499988	       -149.83500671	        407.04449463	         39.83039856	        -61.46224976	         -7.58225346	        420.30111694	
          0.38333321	       -146.12844849	        393.42514038	         29.32610512	        -72.49893188	         -7.22869682	        437.12738037	
          0.39166653	       -120.02727509	        384.32345581	         16.14833641	        -81.53187561	         -7.06915140	        455.73504639	
          0.39999986	        -96.17970276	        377.59359741	          8.68770981	        -88.56889343	         -7.23939610	        476.05029297	
          0.40833321	        -71.10662842	        376.48297119	          2.63756156	        -92.58024597	         -7.70233440	        495.40197754	
          0.41666654	        -42.26900482	        379.56921387	         -7.32842016	        -97.39398956	         -8.34347630	        515.15087891	
          0.42499989	        -36.35316086	        384.42080688	        -10.66893768	       -101.30085754	         -8.94462299	        534.58355713	
          0.43333322	        -40.16160965	        383.50134277	        -13.54430103	       -104.53537750	         -9.26157188	        554.81646729	
          0.44166654	        -63.28772354	        373.75360107	        -11.27205944	       -106.02603912	         -9.23510456	        575.46466064	
          0.44999987	        -87.11882019	        355.67678833	         -9.83502007	       -106.61624146	         -9.00975800	        597.06085205	
          0.45833319	       -120.88258362	        336.76187134	         -2.71670842	       -110.21363068	         -8.70707893	        619.82952881	
          0.46666652	       -132.62660217	        317.20129395	         -1.28801513	       -116.76122284	         -8.57244778	        643.58007813	
          0.47499987	       -138.40492249	        304.03421021	          0.51525778	       -129.52703857	         -8.84418583	        668.64422607	
          0.48333320	        -98.48445892	        297.05172729	        -16.72249031	       -146.05738831	         -9.69898987	        694.59954834	
